<svg width="491" height="491" viewBox="0 0 491 491" fill="none" xmlns="http://www.w3.org/2000/svg">
<g clip-path="url(#clip0)">
<path d="M236.726 371.278L236.732 371.283C239.112 373.638 242.225 374.832 245.339 374.832C248.452 374.832 251.57 373.64 253.934 371.253C253.935 371.252 253.935 371.252 253.936 371.251L488.598 136.59L488.598 136.589C493.342 131.843 493.342 124.13 488.597 119.384C483.851 114.639 476.138 114.639 471.392 119.384L245.339 345.46L19.2637 119.406C19.2636 119.406 19.2636 119.406 19.2636 119.406C14.5178 114.661 6.80511 114.661 2.05934 119.406C-2.68645 124.152 -2.68645 131.865 2.05934 136.611L236.726 371.278Z" fill="white" stroke="white" stroke-width="3"/>
</g>
<defs>
<clipPath id="clip0">
<rect width="490.656" height="490.656" fill="white"/>
</clipPath>
</defs>
</svg>
