<svg id="Capa_1" enable-background="new 0 0 512 512" height="512" viewBox="0 0 512 512" width="512" xmlns="http://www.w3.org/2000/svg"><g><g><path clip-rule="evenodd" d="m12.659 140.981h486.682c2.835 0 5.159 2.323 5.159 5.156v325.707c0 2.833-2.324 5.156-5.159 5.156h-486.682c-2.835 0-5.159-2.323-5.159-5.156v-325.707c0-2.833 2.324-5.156 5.159-5.156z" fill="#fe636e" fill-rule="evenodd"/></g><g><path clip-rule="evenodd" d="m43.33 171.832h425.34c2.721 0 4.932 2.238 4.932 4.958v264.401c0 2.72-2.211 4.929-4.932 4.929h-425.34c-2.721 0-4.961-2.21-4.961-4.929v-264.401c0-2.719 2.24-4.958 4.961-4.958z" fill="#f9f7f7" fill-rule="evenodd"/></g><g><path clip-rule="evenodd" d="m430.516 171.832h38.154c2.721 0 4.932 2.238 4.932 4.958v264.401c0 2.72-2.211 4.929-4.932 4.929h-117.695c-4.677 10.907-9.808 21.219-15.392 30.879h163.758c2.835 0 5.159-2.323 5.159-5.156v-325.706c0-2.833-2.324-5.156-5.159-5.156h-68.74c.85 2.096 1.304 4.391 1.304 6.771v17.111c-.001 2.465-.482 4.816-1.389 6.969z" fill="#fb2a39" fill-rule="evenodd"/></g><g><path clip-rule="evenodd" d="m364.213 171.832c9.383 31.418 15.165 66.15 16.469 102.837.198 5.298.283 10.624.283 15.978 0 10.822-.369 21.474-1.134 31.984-1.332 18.528-3.827 36.489-7.342 53.713-5.102 25.043-12.416 48.529-21.515 69.776h117.696c2.721 0 4.932-2.21 4.932-4.929v-264.401c0-2.72-2.211-4.958-4.932-4.958h-38.154c-2.75 6.629-9.298 11.304-16.895 11.304-2.183 0-4.28-.397-6.208-1.077-4.819-1.756-8.731-5.496-10.687-10.227z" fill="#e2e2e2" fill-rule="evenodd"/></g><g><path clip-rule="evenodd" d="m250.061 35c-6.18 0-12.387 1.388-23.726 4.193l-137.934 32.211c-7.597 1.785-10.63 6.969-10.29 12.097-.34 5.128 2.693 10.312 10.29 12.068l137.934 32.211c11.339 2.805 17.547 4.221 23.726 4.221 6.208 0 12.416-1.416 23.754-4.221l137.935-32.211c7.597-1.756 10.63-6.941 10.261-12.068.368-5.128-2.665-10.312-10.261-12.097l-137.934-32.211c-11.339-2.805-17.547-4.193-23.755-4.193z" fill="#fff" fill-rule="evenodd"/></g><g><path clip-rule="evenodd" d="m299.129 45.114c19.928 12.692 32.23 30.143 32.23 49.35 0 1.841-.113 3.655-.312 5.468-.68 5.383-2.296 10.624-4.791 15.61l85.493-19.972c.652-.142 1.276-.312 1.871-.538 6.236-2.125 8.731-6.856 8.391-11.53.368-5.128-2.665-10.312-10.261-12.097z" fill="#fff" fill-rule="evenodd"/></g><g><path clip-rule="evenodd" d="m138.234 107.212v47.481 4.504c0 12.777 10.176 23.344 22.847 23.91.368.028.737.028 1.106.028h175.465c.397 0 .794 0 1.191-.028 1.786-.085 3.515-.368 5.187-.822 10.091-2.805 17.575-12.125 17.575-23.089v-51.928l-35.348 8.272-52.441 12.238c-11.339 2.805-17.547 4.221-23.754 4.221-6.18 0-12.387-1.416-23.726-4.221z" fill="#838383" fill-rule="evenodd"/></g><g><path clip-rule="evenodd" d="m226.335 39.193-137.934 32.211c-7.597 1.785-10.63 6.969-10.29 12.097-.34 5.128 2.693 10.312 10.29 12.068l49.833 11.643 88.101 20.567c11.339 2.805 17.547 4.221 23.726 4.221 6.208 0 12.416-1.416 23.754-4.221l52.441-12.238 35.348-8.272 50.145-11.7c.652-.142 1.276-.312 1.871-.538 6.236-2.125 8.731-6.856 8.391-11.53.368-5.128-2.665-10.312-10.261-12.097l-112.621-26.29-25.313-5.921c-11.339-2.805-17.547-4.193-23.755-4.193-6.179 0-12.387 1.388-23.726 4.193z" fill="#cecece" fill-rule="evenodd"/></g><g><path clip-rule="evenodd" d="m318.858 117.269v45.979c0 8.272-4.224 15.581-10.63 19.887h29.424c.397 0 .794 0 1.191-.028 1.786-.085 3.515-.368 5.187-.822 10.091-2.805 17.575-12.125 17.575-23.089v-51.928l-35.348 8.272z" fill="#595959" fill-rule="evenodd"/></g><g><path clip-rule="evenodd" d="m395.337 147.752v17.111c0 2.465.482 4.816 1.389 6.969 2.75 6.629 9.298 11.304 16.895 11.304s14.145-4.674 16.895-11.304c.907-2.153 1.389-4.504 1.389-6.969v-17.111c0-2.38-.454-4.674-1.304-6.771-2.721-6.742-9.326-11.502-16.98-11.502-7.682 0-14.287 4.759-16.98 11.502-.85 2.097-1.304 4.391-1.304 6.771z" fill="#cecece" fill-rule="evenodd"/></g><g><path clip-rule="evenodd" d="m318.858 117.269 7.398-1.728 35.348-8.272 50.145-11.7c.652-.142 1.276-.312 1.871-.538 6.236-2.125 8.731-6.856 8.391-11.53.368-5.128-2.665-10.312-10.261-12.097l-91.899-21.446c11.339 9.32 18.028 20.822 18.028 33.259 0 8.131-2.863 15.865-8.022 22.862-2.948 3.995-6.662 7.734-10.999 11.19z" fill="#b5adb6" fill-rule="evenodd"/></g><g><path clip-rule="evenodd" d="m412.26 140.981c.482.793.907 1.643 1.247 2.521.85 2.096 1.304 4.363 1.304 6.771v17.111c0 1.53-.17 3.031-.539 4.448-.227.878-.51 1.7-.85 2.521-1.276 3.088-3.373 5.723-6.009 7.706 1.928.68 4.025 1.077 6.208 1.077 7.597 0 14.145-4.674 16.895-11.304.907-2.153 1.389-4.504 1.389-6.969v-17.111c0-2.38-.454-4.674-1.304-6.771-2.721-6.742-9.326-11.502-16.98-11.502-4.082 0-7.824 1.331-10.885 3.598 4.025 1.445 7.37 4.278 9.524 7.904z" fill="#b5adb6" fill-rule="evenodd"/></g><g><path clip-rule="evenodd" d="m361.35 162.739c.992 3.003 1.928 6.034 2.863 9.094h32.514c-.907-2.153-1.389-4.504-1.389-6.969v-17.111c0-2.38.454-4.674 1.304-6.771h-35.036v18.216c-.001 1.189-.086 2.379-.256 3.541z" fill="#f36b37" fill-rule="evenodd"/></g><g><path d="m418.003 322.631c0-4.142-3.357-7.5-7.5-7.5h-320.656c-4.143 0-7.5 3.358-7.5 7.5s3.357 7.5 7.5 7.5h320.656c4.143 0 7.5-3.358 7.5-7.5z"/><path d="m89.847 282.169h320.656c4.143 0 7.5-3.358 7.5-7.5s-3.357-7.5-7.5-7.5h-320.656c-4.143 0-7.5 3.358-7.5 7.5s3.357 7.5 7.5 7.5z"/><path d="m398.681 386.731c-7.796-.412-9.485-3.851-11.823-8.612-1.795-3.656-5.536-11.264-14.449-9.565-6.943 1.333-10.212 7.139-13.373 12.753-1.653 2.938-3.364 5.975-5.754 9.001-1.76 2.228-2.954 2.861-3.341 2.884-.303.017-2.071-.14-7.028-5.056-12.91-12.836-22.955-4.083-27.782.123-1.808 1.574-3.855 3.359-5.206 3.603-1.249.229-3.593-1.08-6.229-3.504-3.049-2.803-7.794-2.604-10.597.447-2.804 3.049-2.604 7.794.446 10.597 15.394 14.15 26.231 4.705 31.439.167 1.28-1.116 3.424-2.983 4.165-3.116.01.001 1.037.182 3.194 2.327 4.724 4.685 10.475 9.414 17.543 9.414.317 0 .64-.01.963-.029 5.188-.314 9.967-3.194 14.204-8.56 3.115-3.944 5.299-7.823 7.054-10.939.53-.942 1.147-2.039 1.74-3.017 2.879 5.776 8.321 15.23 24.043 16.061 4.116.207 7.667-2.958 7.885-7.094s-2.958-7.666-7.094-7.885z"/><path d="m175.822 237.521h145.559c4.143 0 7.5-3.358 7.5-7.5s-3.357-7.5-7.5-7.5h-145.559c-4.143 0-7.5 3.358-7.5 7.5s3.358 7.5 7.5 7.5z"/><path d="m499.341 133.481h-64.263c-3.277-4.907-8.191-8.631-13.957-10.386v-23.426c5.569-3.619 8.71-9.411 8.403-16.169.426-9.412-5.824-16.993-16.069-19.4l-137.839-32.188c-12.124-2.999-18.598-4.412-25.555-4.412-6.931 0-13.402 1.413-25.433 4.39l-55.304 12.918c-4.033.942-6.539 4.976-5.598 9.009.943 4.035 4.983 6.542 9.01 5.597l55.398-12.941c10.92-2.701 16.643-3.974 21.926-3.974 5.31 0 11.034 1.272 22.049 3.997l137.925 32.208c3.133.736 4.646 2.169 4.496 4.258-.026.357-.026.717 0 1.074.129 1.796-.979 3.096-3.292 3.886-.042.014-.082.031-.123.045-.333.109-.689.208-1.072.297l-49.844 11.64c-.161.03-.317.07-.474.111l-87.713 20.483c-11.248 2.783-16.724 4.002-21.953 4.002-5.203 0-10.677-1.219-22.021-4.025l-137.947-32.213c-3.123-.722-4.636-2.157-4.496-4.265.022-.331.022-.662 0-.992-.14-2.115 1.381-3.562 4.512-4.297l48.188-11.247c4.033-.941 6.54-4.975 5.599-9.008s-4.976-6.541-9.009-5.599l-48.198 11.25c-10.216 2.398-16.48 9.982-16.086 19.396-.396 9.436 5.878 17.011 16.095 19.373l44.039 10.284v20.325h-118.076c-6.98-.001-12.659 5.677-12.659 12.655v325.707c0 6.979 5.679 12.656 12.659 12.656h486.682c6.98 0 12.659-5.677 12.659-12.656v-325.707c0-6.978-5.679-12.656-12.659-12.656zm-74.937 14.271v17.111c0 1.427-.285 2.787-.792 4.034-.023.055-.042.114-.064.17-1.643 3.857-5.474 6.569-9.928 6.569s-8.285-2.712-9.927-6.569c-.022-.056-.041-.115-.064-.17-.506-1.247-.792-2.607-.792-4.034v-17.111c0-3.061 1.29-5.821 3.349-7.784.464 3.697 3.612 6.558 7.435 6.558s6.97-2.862 7.435-6.558c2.058 1.964 3.348 4.724 3.348 7.784zm-55.724 16.581c.275-1.673.425-3.386.425-5.135v-10.716h18.732v15.851zm23.485-30.852h-23.059v-20.252l37.016-8.644v18.51c-5.766 1.756-10.68 5.479-13.957 10.386zm-167.631 1.58c11.466 2.836 18.305 4.44 25.527 4.44 7.251 0 14.09-1.604 25.459-4.417l78.585-18.352v42.465c0 3.08-.86 5.958-2.337 8.427-.14.206-.27.418-.389.638-2.793 4.221-7.483 7.087-12.906 7.355-.056.002-.11.006-.165.01-.219.016-.438.009-.656.009h-175.464c-.177 0-.354.007-.53-.006-.08-.006-.16-.011-.24-.015-8.647-.387-15.683-7.752-15.683-16.418v-42.538zm272.466 334.439h-482v-321.019h115.734v10.716c0 1.749.15 3.463.423 5.135h-87.827c-6.871 0-12.461 5.588-12.461 12.458v264.401c0 6.854 5.59 12.429 12.461 12.429h194.599c4.143 0 7.5-3.358 7.5-7.5s-3.357-7.5-7.5-7.5h-192.06v-259.287h92.139c5.442 6.532 13.493 10.824 22.634 11.263.515.034 1.029.041 1.545.041h175.465c.544 0 1.089-.006 1.633-.041 9.092-.469 17.103-4.759 22.529-11.263h30.482c4.644 6.817 12.469 11.304 21.324 11.304s16.68-4.486 21.324-11.304h31.157v259.288h-193.561c-4.143 0-7.5 3.358-7.5 7.5s3.357 7.5 7.5 7.5h196.13c6.855 0 12.433-5.576 12.433-12.429v-264.402c0-6.869-5.577-12.458-12.433-12.458h-29.266v-15.851h57.596z"/></g></g></svg>