<svg width="216" height="158" viewBox="0 0 216 158" fill="none" xmlns="http://www.w3.org/2000/svg">
<path d="M157.5 41H58.5001C26.244 41 0 67.244 0 99.5001C0 131.756 26.244 158 58.5001 158H157.5C189.756 158 216 131.756 216 99.5001C216 67.244 189.756 41 157.5 41ZM157.5 149H58.5001C31.212 149 9.00028 126.797 9.00028 99.5001C9.00028 72.2031 31.2124 50.0003 58.5001 50.0003H157.5C184.788 50.0003 207 72.2031 207 99.5001C207 126.797 184.788 149 157.5 149Z" fill="#32BEA6"/>
<path d="M151.429 85.0042C146.23 85.0042 142 89.2343 142 94.4327V107.004C142 112.203 146.23 116.433 151.429 116.433C156.627 116.433 160.857 112.203 160.857 107.004V94.4327C160.857 89.2343 156.627 85.0042 151.429 85.0042ZM154.572 107.004C154.572 108.739 153.157 110.147 151.429 110.147C149.7 110.147 148.286 108.739 148.286 107.004V94.4324C148.286 92.6976 149.7 91.2895 151.429 91.2895C153.157 91.2898 154.572 92.6979 154.572 94.4327V107.004Z" fill="#32BEA6"/>
<path d="M182.857 85.0042C181.122 85.0042 179.714 86.4123 179.714 88.1471V99.9768L173.102 86.739C172.448 85.4379 171.009 84.7464 169.563 85.0858C168.142 85.419 167.143 86.6887 167.143 88.1468V113.29C167.143 115.025 168.551 116.433 170.286 116.433C172.021 116.433 173.429 115.025 173.429 113.29V101.46L180.048 114.698C180.588 115.779 181.682 116.433 182.857 116.433C183.096 116.433 183.335 116.408 183.58 116.351C185.001 116.018 186 114.748 186 113.29V88.1474C186 86.412 184.592 85.0042 182.857 85.0042Z" fill="#32BEA6"/>
<path d="M108.5 80.9737C130.868 80.9737 149 62.8531 149 40.5002C149 18.1474 130.868 0.026825 108.5 0.026825C86.1325 0.026825 68 18.1474 68 40.5002C68 62.8531 86.1325 80.9737 108.5 80.9737Z" fill="#FF6E2A"/>
<path d="M105.252 62.0283L86.1035 47.1104L91.5482 40.1228L103.307 49.2834L122.714 21.279L129.997 26.3237L105.252 62.0283Z" fill="white"/>
<path d="M54.2695 106.093C54.1852 107.924 53.6914 109.544 52.7881 110.953C51.8848 112.35 50.6141 113.434 48.9761 114.205C47.3501 114.976 45.4893 115.361 43.3936 115.361C39.9368 115.361 37.2148 114.235 35.2275 111.983C33.2402 109.731 32.2466 106.551 32.2466 102.444V101.143C32.2466 98.5656 32.6922 96.3133 33.5835 94.3862C34.4868 92.4471 35.7816 90.9536 37.4678 89.9058C39.154 88.8459 41.1051 88.3159 43.3213 88.3159C46.513 88.3159 49.0785 89.159 51.0176 90.8452C52.9567 92.5194 54.0588 94.8319 54.3237 97.7827H48.0005C47.9523 96.1808 47.5488 95.0306 46.79 94.332C46.0312 93.6335 44.875 93.2842 43.3213 93.2842C41.7435 93.2842 40.5872 93.8743 39.8525 95.0547C39.1178 96.235 38.7324 98.12 38.6963 100.709V102.57C38.6963 105.377 39.0456 107.382 39.7441 108.586C40.4548 109.791 41.6712 110.393 43.3936 110.393C44.8509 110.393 45.965 110.05 46.7358 109.363C47.5067 108.677 47.9162 107.587 47.9644 106.093H54.2695ZM62.9414 97.5479C64.2422 95.9098 65.9043 95.0908 67.9277 95.0908C70.0837 95.0908 71.7096 95.7292 72.8057 97.0059C73.9017 98.2826 74.4618 100.167 74.4858 102.661V115H68.3794V102.805C68.3794 101.769 68.1686 101.011 67.7471 100.529C67.3255 100.035 66.6089 99.7881 65.5972 99.7881C64.3446 99.7881 63.4593 100.186 62.9414 100.98V115H56.853V87.25H62.9414V97.5479ZM87.3311 115.361C84.332 115.361 81.9051 114.47 80.0503 112.688C78.1955 110.893 77.2681 108.562 77.2681 105.696V105.19C77.2681 103.191 77.6354 101.426 78.3701 99.8965C79.1169 98.3669 80.2008 97.1865 81.6221 96.3555C83.0433 95.5124 84.7295 95.0908 86.6807 95.0908C89.4268 95.0908 91.5947 95.946 93.1846 97.6562C94.7744 99.3545 95.5693 101.727 95.5693 104.774V107.141H83.4648C83.6816 108.237 84.1574 109.098 84.8921 109.725C85.6268 110.351 86.5783 110.664 87.7466 110.664C89.6737 110.664 91.1792 109.99 92.2632 108.641L95.0454 111.929C94.2866 112.977 93.2087 113.814 91.8115 114.44C90.4264 115.054 88.9329 115.361 87.3311 115.361ZM86.6445 99.7881C84.862 99.7881 83.8021 100.968 83.4648 103.329H89.6074V102.859C89.6315 101.884 89.3846 101.131 88.8667 100.601C88.3488 100.059 87.6081 99.7881 86.6445 99.7881ZM106.301 110.664C107.156 110.664 107.818 110.435 108.288 109.978C108.758 109.508 108.987 108.857 108.975 108.026H114.684C114.684 110.17 113.913 111.929 112.371 113.302C110.841 114.675 108.866 115.361 106.445 115.361C103.603 115.361 101.363 114.47 99.7246 112.688C98.0866 110.905 97.2676 108.436 97.2676 105.28V105.027C97.2676 103.052 97.6289 101.312 98.3516 99.8062C99.0863 98.2886 100.14 97.1263 101.513 96.3193C102.886 95.5003 104.512 95.0908 106.391 95.0908C108.932 95.0908 110.95 95.7954 112.443 97.2046C113.937 98.6138 114.684 100.523 114.684 102.932H108.975C108.975 101.92 108.728 101.143 108.234 100.601C107.74 100.059 107.078 99.7881 106.247 99.7881C104.669 99.7881 103.747 100.794 103.482 102.805C103.398 103.444 103.356 104.323 103.356 105.443C103.356 107.406 103.591 108.767 104.061 109.526C104.53 110.285 105.277 110.664 106.301 110.664ZM125.108 107.719L123.392 109.436V115H117.303V87.2319H123.392V101.974L124.006 101.161L128.595 95.4521H135.894L129.046 103.492L136.345 115H129.372L125.108 107.719Z" fill="white"/>
</svg>
