<svg width="300" height="200" viewBox="0 0 300 200" fill="none" xmlns="http://www.w3.org/2000/svg">
<rect width="300" height="200" rx="20" fill="#002060"/>
<path d="M199.5 62H100.5C68.244 62 42 88.244 42 120.5C42 152.756 68.244 179 100.5 179H199.5C231.756 179 258 152.756 258 120.5C258 88.244 231.756 62 199.5 62ZM199.5 170H100.5C73.212 170 51.0003 147.797 51.0003 120.5C51.0003 93.2031 73.2124 71.0003 100.5 71.0003H199.5C226.788 71.0003 249 93.2031 249 120.5C249 147.797 226.788 170 199.5 170Z" fill="#32BEA6"/>
<path d="M193.429 106.004C188.23 106.004 184 110.234 184 115.433V128.004C184 133.203 188.23 137.433 193.429 137.433C198.627 137.433 202.857 133.203 202.857 128.004V115.433C202.857 110.234 198.627 106.004 193.429 106.004ZM196.572 128.004C196.572 129.739 195.157 131.147 193.429 131.147C191.7 131.147 190.286 129.739 190.286 128.004V115.432C190.286 113.698 191.7 112.289 193.429 112.289C195.157 112.29 196.572 113.698 196.572 115.433V128.004Z" fill="#32BEA6"/>
<path d="M224.857 106.004C223.122 106.004 221.714 107.412 221.714 109.147V120.977L215.102 107.739C214.448 106.438 213.009 105.746 211.563 106.086C210.142 106.419 209.143 107.689 209.143 109.147V134.29C209.143 136.025 210.551 137.433 212.286 137.433C214.021 137.433 215.429 136.025 215.429 134.29V122.46L222.048 135.698C222.588 136.779 223.682 137.433 224.857 137.433C225.096 137.433 225.335 137.408 225.58 137.351C227.001 137.018 228 135.748 228 134.29V109.147C228 107.412 226.592 106.004 224.857 106.004Z" fill="#32BEA6"/>
<path d="M150.5 101.974C172.868 101.974 191 83.8531 191 61.5003C191 39.1474 172.868 21.0269 150.5 21.0269C128.132 21.0269 110 39.1474 110 61.5003C110 83.8531 128.132 101.974 150.5 101.974Z" fill="#FF6E2A"/>
<path d="M147.252 83.0283L128.104 68.1104L133.548 61.1229L145.307 70.2835L164.714 42.279L171.997 47.3238L147.252 83.0283Z" fill="white"/>
<path d="M78.6157 116.061C76.9175 116.061 75.5926 116.76 74.6411 118.157C73.6896 119.542 73.2139 121.457 73.2139 123.902C73.2139 128.985 75.147 131.526 79.0132 131.526C80.1815 131.526 81.3136 131.363 82.4097 131.038C83.5057 130.713 84.6077 130.321 85.7158 129.864V135.898C83.5117 136.874 81.0186 137.361 78.2363 137.361C74.2497 137.361 71.1904 136.205 69.0586 133.893C66.9388 131.58 65.8789 128.238 65.8789 123.866C65.8789 121.132 66.3908 118.729 67.4146 116.657C68.4504 114.586 69.9318 112.996 71.8589 111.888C73.798 110.768 76.0744 110.208 78.688 110.208C81.5425 110.208 84.2705 110.828 86.8721 112.068L84.686 117.687C83.7104 117.229 82.7349 116.844 81.7593 116.531C80.7837 116.218 79.7358 116.061 78.6157 116.061ZM103.349 137V125.835C103.349 123.089 102.536 121.716 100.91 121.716C99.7534 121.716 98.8983 122.204 98.3442 123.179C97.8022 124.143 97.5312 125.751 97.5312 128.003V137H90.4673V108.889H97.5312V112.881C97.5312 114.688 97.4349 116.748 97.2422 119.06H97.5674C98.2419 118 99.0428 117.253 99.9702 116.82C100.898 116.386 101.976 116.169 103.204 116.169C105.493 116.169 107.269 116.832 108.534 118.157C109.81 119.47 110.449 121.312 110.449 123.685V137H103.349ZM125.137 137.361C121.728 137.361 119.078 136.458 117.188 134.651C115.309 132.833 114.369 130.249 114.369 126.901C114.369 123.444 115.242 120.794 116.989 118.952C118.735 117.097 121.228 116.169 124.468 116.169C127.552 116.169 129.93 116.976 131.604 118.59C133.291 120.192 134.134 122.505 134.134 125.528V128.671H121.505C121.554 129.816 121.969 130.713 122.752 131.363C123.547 132.014 124.625 132.339 125.986 132.339C127.226 132.339 128.365 132.224 129.4 131.996C130.448 131.755 131.58 131.351 132.797 130.785V135.862C131.689 136.428 130.545 136.819 129.364 137.036C128.184 137.253 126.775 137.361 125.137 137.361ZM124.721 120.975C123.89 120.975 123.192 121.24 122.625 121.77C122.071 122.288 121.746 123.107 121.65 124.227H127.72C127.696 123.239 127.413 122.451 126.871 121.86C126.341 121.27 125.625 120.975 124.721 120.975ZM147.449 137.361C144.1 137.361 141.559 136.458 139.825 134.651C138.102 132.845 137.241 130.249 137.241 126.865C137.241 123.468 138.175 120.837 140.042 118.97C141.908 117.103 144.564 116.169 148.009 116.169C150.382 116.169 152.616 116.687 154.711 117.723L152.634 122.944C151.779 122.571 150.99 122.276 150.267 122.059C149.544 121.83 148.792 121.716 148.009 121.716C146.865 121.716 145.979 122.161 145.353 123.053C144.727 123.944 144.414 125.203 144.414 126.829C144.414 130.105 145.624 131.743 148.045 131.743C150.117 131.743 152.104 131.14 154.007 129.936V135.555C152.188 136.759 150.002 137.361 147.449 137.361ZM164.919 125.492C165.774 124.131 166.503 123.071 167.105 122.312L171.694 116.531H179.571L172.471 125.239L180.022 137H171.947L167.466 129.665L165.172 131.417V137H158.072V108.889H165.172V119.945C165.172 121.836 165.039 123.685 164.774 125.492H164.919Z" fill="white"/>
</svg>
