<svg width="270" height="270" viewBox="0 0 270 270" fill="none" xmlns="http://www.w3.org/2000/svg">
<rect width="270" height="270" rx="135" fill="#002060"/>
<path d="M184.5 99H85.5001C53.244 99 27 125.244 27 157.5C27 189.756 53.244 216 85.5001 216H184.5C216.756 216 243 189.756 243 157.5C243 125.244 216.756 99 184.5 99ZM184.5 207H85.5001C58.212 207 36.0003 184.797 36.0003 157.5C36.0003 130.203 58.2124 108 85.5001 108H184.5C211.788 108 234 130.203 234 157.5C234 184.797 211.788 207 184.5 207Z" fill="#32BEA6"/>
<path d="M178.429 143.004C173.23 143.004 169 147.234 169 152.433V165.004C169 170.203 173.23 174.433 178.429 174.433C183.627 174.433 187.857 170.203 187.857 165.004V152.433C187.857 147.234 183.627 143.004 178.429 143.004ZM181.572 165.004C181.572 166.739 180.157 168.147 178.429 168.147C176.7 168.147 175.286 166.739 175.286 165.004V152.432C175.286 150.698 176.7 149.289 178.429 149.289C180.157 149.29 181.572 150.698 181.572 152.433V165.004Z" fill="#32BEA6"/>
<path d="M209.857 143.004C208.122 143.004 206.714 144.412 206.714 146.147V157.977L200.102 144.739C199.448 143.438 198.009 142.746 196.563 143.086C195.142 143.419 194.143 144.689 194.143 146.147V171.29C194.143 173.025 195.551 174.433 197.286 174.433C199.021 174.433 200.429 173.025 200.429 171.29V159.46L207.048 172.698C207.588 173.779 208.682 174.433 209.857 174.433C210.096 174.433 210.335 174.408 210.58 174.351C212.001 174.018 213 172.748 213 171.29V146.147C213 144.412 211.592 143.004 209.857 143.004Z" fill="#32BEA6"/>
<path d="M135.5 138.974C157.868 138.974 176 120.853 176 98.5002C176 76.1474 157.868 58.0268 135.5 58.0268C113.132 58.0268 95 76.1474 95 98.5002C95 120.853 113.132 138.974 135.5 138.974Z" fill="#FF6E2A"/>
<path d="M132.252 120.028L113.104 105.11L118.548 98.1228L130.307 107.283L149.714 79.279L156.997 84.3237L132.252 120.028Z" fill="white"/>
<path d="M63.6157 153.061C61.9175 153.061 60.5926 153.76 59.6411 155.157C58.6896 156.542 58.2139 158.457 58.2139 160.902C58.2139 165.985 60.147 168.526 64.0132 168.526C65.1815 168.526 66.3136 168.363 67.4097 168.038C68.5057 167.713 69.6077 167.321 70.7158 166.864V172.898C68.5117 173.874 66.0186 174.361 63.2363 174.361C59.2497 174.361 56.1904 173.205 54.0586 170.893C51.9388 168.58 50.8789 165.238 50.8789 160.866C50.8789 158.132 51.3908 155.729 52.4146 153.657C53.4504 151.586 54.9318 149.996 56.8589 148.888C58.798 147.768 61.0744 147.208 63.688 147.208C66.5425 147.208 69.2705 147.828 71.8721 149.068L69.686 154.687C68.7104 154.229 67.7349 153.844 66.7593 153.531C65.7837 153.218 64.7358 153.061 63.6157 153.061ZM88.3486 174V162.835C88.3486 160.089 87.5356 158.716 85.9097 158.716C84.7534 158.716 83.8983 159.204 83.3442 160.179C82.8022 161.143 82.5312 162.751 82.5312 165.003V174H75.4673V145.889H82.5312V149.881C82.5312 151.688 82.4349 153.748 82.2422 156.06H82.5674C83.2419 155 84.0428 154.253 84.9702 153.82C85.8976 153.386 86.9756 153.169 88.2041 153.169C90.4925 153.169 92.269 153.832 93.5337 155.157C94.8104 156.47 95.4487 158.312 95.4487 160.685V174H88.3486ZM110.137 174.361C106.728 174.361 104.078 173.458 102.188 171.651C100.309 169.833 99.3691 167.249 99.3691 163.901C99.3691 160.444 100.242 157.794 101.989 155.952C103.735 154.097 106.228 153.169 109.468 153.169C112.552 153.169 114.93 153.976 116.604 155.59C118.291 157.192 119.134 159.505 119.134 162.528V165.671H106.505C106.554 166.816 106.969 167.713 107.752 168.363C108.547 169.014 109.625 169.339 110.986 169.339C112.226 169.339 113.365 169.224 114.4 168.996C115.448 168.755 116.58 168.351 117.797 167.785V172.862C116.689 173.428 115.545 173.819 114.364 174.036C113.184 174.253 111.775 174.361 110.137 174.361ZM109.721 157.975C108.89 157.975 108.192 158.24 107.625 158.77C107.071 159.288 106.746 160.107 106.65 161.227H112.72C112.696 160.239 112.413 159.451 111.871 158.86C111.341 158.27 110.625 157.975 109.721 157.975ZM132.449 174.361C129.1 174.361 126.559 173.458 124.825 171.651C123.102 169.845 122.241 167.249 122.241 163.865C122.241 160.468 123.175 157.837 125.042 155.97C126.908 154.103 129.564 153.169 133.009 153.169C135.382 153.169 137.616 153.687 139.711 154.723L137.634 159.944C136.779 159.571 135.99 159.276 135.267 159.059C134.544 158.83 133.792 158.716 133.009 158.716C131.865 158.716 130.979 159.161 130.353 160.053C129.727 160.944 129.414 162.203 129.414 163.829C129.414 167.105 130.624 168.743 133.045 168.743C135.117 168.743 137.104 168.14 139.007 166.936V172.555C137.188 173.759 135.002 174.361 132.449 174.361ZM149.919 162.492C150.774 161.131 151.503 160.071 152.105 159.312L156.694 153.531H164.571L157.471 162.239L165.022 174H156.947L152.466 166.665L150.172 168.417V174H143.072V145.889H150.172V156.945C150.172 158.836 150.039 160.685 149.774 162.492H149.919Z" fill="white"/>
</svg>
