<svg width="30" height="15" viewBox="0 0 30 15" fill="none" xmlns="http://www.w3.org/2000/svg">
<path d="M29.6563 6.43616C29.6559 6.43581 29.6556 6.4354 29.6552 6.43505L23.5319 0.341307C23.0732 -0.115197 22.3312 -0.113498 21.8746 0.345291C21.4181 0.804021 21.4198 1.54599 21.8785 2.00255L25.9897 6.0938H1.17187C0.524648 6.0938 0 6.61845 0 7.26567C0 7.9129 0.524648 8.43754 1.17187 8.43754H25.9897L21.8786 12.5288C21.4199 12.9854 21.4181 13.7273 21.8747 14.1861C22.3313 14.6449 23.0733 14.6465 23.532 14.19L29.6553 8.09629C29.6556 8.09594 29.6559 8.09553 29.6563 8.09518C30.1153 7.6371 30.1138 6.89272 29.6563 6.43616Z" fill="black"/>
</svg>
