<svg width="30" height="30" viewBox="0 0 30 30" fill="none" xmlns="http://www.w3.org/2000/svg">
<path d="M7.49999 11.7803H1.07322C0.483263 11.7803 0.00627614 12.2573 0 12.8535V28.9204C0 29.5166 0.483263 29.9936 1.07322 29.9936H7.49999C8.09622 29.9936 8.57321 29.5104 8.57321 28.9204V12.8535C8.57321 12.2573 8.08994 11.7803 7.49999 11.7803Z" fill="black"/>
<path d="M18.2134 0H11.7866C11.1966 0 10.7134 0.476986 10.7134 1.06694V28.9204C10.7134 29.5167 11.1966 29.9937 11.7866 29.9937H18.2134C18.8096 29.9937 19.2866 29.5104 19.2866 28.9204V1.07322C19.2866 0.476986 18.8033 0 18.2134 0Z" fill="black"/>
<path d="M28.9268 8.5668H22.5C21.9038 8.5668 21.4268 9.04379 21.4268 9.64002V28.9203C21.4268 29.5165 21.9101 29.9935 22.5 29.9935H28.9268C29.523 29.9935 30 29.5103 30 28.9203V9.64002C30 9.04379 29.5168 8.5668 28.9268 8.5668Z" fill="black"/>
</svg>
